<svg width="106" height="27" viewBox="0 0 106 27" fill="none" xmlns="http://www.w3.org/2000/svg">
<path d="M98.7263 15.8916C98.843 17.4252 99.9099 18.1753 100.993 18.1753C101.693 18.1753 102.41 17.9253 102.877 17.1418H105.244C104.761 18.4754 103.444 19.9589 101.01 19.9589C98.1262 19.9589 96.4426 17.8086 96.4426 15.2248C96.4426 12.5577 98.2929 10.5741 100.943 10.5741C103.71 10.5741 105.444 12.7244 105.344 15.8916H98.7263ZM98.7597 14.308H103.01C102.96 12.7911 101.894 12.2577 100.927 12.2577C100.06 12.2577 98.943 12.8078 98.7597 14.308Z" fill="black"/>
<path d="M95.4876 13.8413H93.2873C93.1206 12.9912 92.2871 12.3577 91.4203 12.3577C90.2201 12.3577 89.2699 13.3745 89.2699 15.2415C89.2699 17.1252 90.1701 18.1753 91.437 18.1753C92.2204 18.1753 93.0705 17.7753 93.3706 16.6918H95.5709C95.0375 19.1421 93.1706 19.9589 91.3203 19.9589C88.6365 19.9589 86.9196 17.9753 86.9196 15.2749C86.9196 12.5411 88.7365 10.5741 91.4203 10.5741C93.2872 10.5741 95.1876 11.6076 95.4876 13.8413Z" fill="black"/>
<path d="M80.6192 19.9588C78.9023 19.9588 77.3854 18.9587 77.3854 17.3251C77.3854 15.2081 79.7691 14.5746 83.2863 14.1746V14.0245C83.2863 12.641 82.5362 12.1576 81.6027 12.1576C80.7192 12.1576 79.9858 12.6243 79.9358 13.6078H77.7854C77.9521 11.8409 79.419 10.5406 81.7194 10.5406C83.8531 10.5406 85.5867 11.4575 85.5867 14.4913C85.5867 14.7747 85.5534 15.9582 85.5534 16.775C85.5534 18.1919 85.6534 18.992 85.8201 19.7421H83.7031C83.6364 19.4588 83.5864 19.0587 83.553 18.6253C82.9196 19.5588 81.9695 19.9588 80.6192 19.9588ZM83.353 15.6415C80.7859 15.9082 79.7524 16.2082 79.7524 17.2084C79.7524 17.8585 80.2692 18.3919 81.3027 18.3919C82.7362 18.3919 83.353 17.6085 83.353 16.3082V15.6415Z" fill="black"/>
<path d="M72.9875 10.2739C72.9875 8.00692 74.0543 7.65686 76.3047 7.65686H77.0881V9.35713H76.638C75.5045 9.35713 75.2878 9.49049 75.2878 10.3406V10.774H77.0881V12.3576H75.2878V19.7421H72.9875V12.3576H71.7206V10.774H72.9875V10.2739Z" fill="black"/>
<path d="M64.4271 15.8916C64.5438 17.4252 65.6107 18.1753 66.6942 18.1753C67.3943 18.1753 68.1111 17.9253 68.5778 17.1418H70.9449C70.4614 18.4754 69.1446 19.9589 66.7108 19.9589C63.827 19.9589 62.1434 17.8086 62.1434 15.2248C62.1434 12.5577 63.9937 10.5741 66.6442 10.5741C69.4113 10.5741 71.1449 12.7244 71.0449 15.8916H64.4271ZM64.4605 14.308H68.7112C68.6612 12.7911 67.5943 12.2577 66.6275 12.2577C65.7607 12.2577 64.6438 12.8078 64.4605 14.308Z" fill="black"/>
<path d="M52.3248 22.6594V10.7741H54.6252V11.9243C55.1086 11.0908 56.0754 10.5741 57.209 10.5741C59.376 10.5741 61.1096 12.4411 61.1096 15.2582C61.1096 18.1253 59.326 19.9589 57.1923 19.9589C56.2588 19.9589 55.192 19.5922 54.6252 18.6087V22.6594H52.3248ZM58.6925 15.2749C58.6925 13.5246 57.8257 12.341 56.6422 12.341C55.3753 12.341 54.5419 13.4579 54.5419 15.2582C54.5419 17.0918 55.3753 18.192 56.6422 18.192C57.8257 18.192 58.6925 17.0251 58.6925 15.2749Z" fill="black"/>
<path d="M43.2886 22.6593V20.8923H44.1554C44.9222 20.8923 45.2723 20.909 45.6556 19.9589L45.7557 19.7088L42.3218 10.774H44.8389L46.8725 17.2418L48.9562 10.774H51.2899L48.006 19.4755C46.9559 22.2592 46.4891 22.6593 44.2554 22.6593H43.2886Z" fill="black"/>
<path d="M37.3319 9.59051H33.6146V7.65686H43.4495V9.59051H39.7156V19.7421H37.3319V9.59051Z" fill="black"/>
<path d="M27 27H0V0H27V27ZM6.96875 6.53125V19.5957H9.58203V6.53125H6.96875Z" fill="#FD243E"/>
</svg>
